HIERARCHY
ROOT Hips
{
	OFFSET 0.00000 0.00000 0.00000
	CHANNELS 6 Xposition Yposition Zposition Zrotation Yrotation Xrotation 
	JOINT LHipJoint
	{
		OFFSET 0 0 0
		CHANNELS 3 Zrotation Yrotation Xrotation
		JOINT LeftUpLeg
		{
			OFFSET 1.43652 -1.81092 0.91346
			CHANNELS 3 Zrotation Yrotation Xrotation
			JOINT LeftLeg
			{
				OFFSET 2.45984 -6.75837 0.00000
				CHANNELS 3 Zrotation Yrotation Xrotation
				JOINT LeftFoot
				{
					OFFSET 2.63718 -7.24559 0.00000
					CHANNELS 3 Zrotation Yrotation Xrotation
					JOINT LeftToeBase
					{
						OFFSET 0.19690 -0.54098 2.12239
						CHANNELS 3 Zrotation Yrotation Xrotation
						End Site
						{
							OFFSET 0.00000 -0.00000 1.10116
						}
					}
				}
			}
		}
	}
	JOINT RHipJoint
	{
		OFFSET 0 0 0
		CHANNELS 3 Zrotation Yrotation Xrotation
		JOINT RightUpLeg
		{
			OFFSET -1.35116 -1.81092 0.91345
			CHANNELS 3 Zrotation Yrotation Xrotation
			JOINT RightLeg
			{
				OFFSET -2.55576 -7.02189 0.00000
				CHANNELS 3 Zrotation Yrotation Xrotation
				JOINT RightFoot
				{
					OFFSET -2.61938 -7.19669 0.00000
					CHANNELS 3 Zrotation Yrotation Xrotation
					JOINT RightToeBase
					{
						OFFSET -0.32509 -0.89318 2.23646
						CHANNELS 3 Zrotation Yrotation Xrotation
						End Site
						{
							OFFSET -0.00000 -0.00000 1.19625
						}
					}
				}
			}
		}
	}
	JOINT LowerBack
	{
		OFFSET 0 0 0
		CHANNELS 3 Zrotation Yrotation Xrotation
		JOINT Spine
		{
			OFFSET 0.05193 2.08077 -0.11958
			CHANNELS 3 Zrotation Yrotation Xrotation
			JOINT Spine1
			{
				OFFSET 0.04960 2.08447 0.01967
				CHANNELS 3 Zrotation Yrotation Xrotation
				JOINT Neck
				{
					OFFSET 0 0 0
					CHANNELS 3 Zrotation Yrotation Xrotation
					JOINT Neck1
					{
						OFFSET -0.10699 1.82066 0.27584
						CHANNELS 3 Zrotation Yrotation Xrotation
						JOINT Head
						{
							OFFSET 0.14949 1.84747 -0.32279
							CHANNELS 3 Zrotation Yrotation Xrotation
							End Site
							{
								OFFSET 0.04969 1.88916 -0.14562
							}
						}
					}
				}
				JOINT LeftShoulder
				{
					OFFSET 0 0 0
					CHANNELS 3 Zrotation Yrotation Xrotation
					JOINT LeftArm
					{
						OFFSET 3.73629 1.27211 -0.12847
						CHANNELS 3 Zrotation Yrotation Xrotation
						JOINT LeftForeArm
						{
							OFFSET 5.10995 -0.00000 0.00000
							CHANNELS 3 Zrotation Yrotation Xrotation
							JOINT LeftHand
							{
								OFFSET 3.21207 -0.00000 0.00000
								CHANNELS 3 Zrotation Yrotation Xrotation
								JOINT LeftFingerBase
								{
									OFFSET 0 0 0
									CHANNELS 3 Zrotation Yrotation Xrotation
									JOINT LeftHandIndex1
									{
										OFFSET 0.63349 -0.00000 0.00000
										CHANNELS 3 Zrotation Yrotation Xrotation
										End Site
										{
											OFFSET 0.51074 -0.00000 0.00000
										}
									}
								}
								JOINT LThumb
								{
									OFFSET 0 0 0
									CHANNELS 3 Zrotation Yrotation Xrotation
									End Site
									{
										OFFSET 0.51853 -0.00000 0.51853
									}
								}
							}
						}
					}
				}
				JOINT RightShoulder
				{
					OFFSET 0 0 0
					CHANNELS 3 Zrotation Yrotation Xrotation
					JOINT RightArm
					{
						OFFSET -3.70251 1.29541 -0.35354
						CHANNELS 3 Zrotation Yrotation Xrotation
						JOINT RightForeArm
						{
							OFFSET -5.25109 -0.00000 0.00000
							CHANNELS 3 Zrotation Yrotation Xrotation
							JOINT RightHand
							{
								OFFSET -3.28364 -0.00000 0.00000
								CHANNELS 3 Zrotation Yrotation Xrotation
								JOINT RightFingerBase
								{
									OFFSET 0 0 0
									CHANNELS 3 Zrotation Yrotation Xrotation
									JOINT RightHandIndex1
									{
										OFFSET -0.59974 -0.00000 0.00000
										CHANNELS 3 Zrotation Yrotation Xrotation
										End Site
										{
											OFFSET -0.48353 -0.00000 0.00000
										}
									}
								}
								JOINT RThumb
								{
									OFFSET 0 0 0
									CHANNELS 3 Zrotation Yrotation Xrotation
									End Site
									{
										OFFSET -0.49091 -0.00000 0.49091
									}
								}
							}
						}
					}
				}
			}
		}
	}
}
MOTION
Frames: 10
Frame Time: 0.028169
0.00 0.00 0.00 -15.5555 38.4568 11.9350 0.0000 0.0000 0.0000 -10.1004 -18.5458 -46.8829 2.3193 9.5017 27.3776 -1.8696 -23.8685 14.7047 0.7569 5.5564 15.5025 0.0000 0.0000 0.0000 12.5682 -4.4311 -14.0799 -6.4751 -14.8735 46.8600 0.9140 -17.1017 -2.1453 -0.6468 -5.1447 14.3216 3.9887 5.6678 19.3806 3.5005 8.6178 2.8199 -0.6574 4.1000 -7.6825 -18.6874 -16.7803 2.5210 35.3967 -20.7823 -17.5022 13.4014 -11.4495 1.1063 -0.0000 -0.0000 0.0000 -84.1380 1.7219 47.0604 43.7176 -50.1245 -21.2500 -0.0000 0.0000 -17.1099 10.7076 13.9918 2.6176 -7.1250 0.0000 -0.0000 -15.2528 43.6695 0.5135 -0.0000 -0.0000 0.0000 79.5396 27.8686 2.0716 -15.0241 24.1797 -3.2358 0.0000 -0.0000 -17.0299 -44.3057 7.4631 -7.2253 7.1250 -0.0000 -0.0000 -12.4373 -19.7236 -7.6919
0.00 0.00 0.00 -16.0648 29.3422 2.7751 0.0000 0.0000 0.0000 -12.0283 -15.3807 -37.0318 2.2259 9.3216 26.8067 -0.9006 -17.2521 11.8252 0.3782 3.9495 10.9348 0.0000 0.0000 0.0000 10.2054 -9.2014 -23.5453 -13.7406 -19.0335 71.4108 0.4187 -11.5342 -6.2748 -0.3239 -3.6583 10.1174 2.0321 3.2843 17.6779 2.1763 4.9244 2.3882 0.0181 2.3694 -7.3410 -17.7679 -15.6679 -2.5245 33.3279 -21.6360 -4.1808 11.5742 -10.6616 5.4216 0.0000 0.0000 0.0000 -86.6115 -9.9621 54.5708 42.5503 -49.5104 -20.3582 -0.0000 0.0000 -23.8563 20.2928 20.3438 7.3253 -7.1250 0.0000 -0.0000 -8.3049 51.3635 -1.3094 0.0000 0.0000 0.0000 57.6120 27.5985 13.4519 -26.0970 37.3043 -8.9464 0.0000 -0.0000 -18.8892 -33.3514 6.3915 -4.1904 7.1250 -0.0000 -0.0000 -4.8335 -22.3508 -2.6415
0.00 0.00 0.00 -13.8312 16.4482 -0.6324 0.0000 0.0000 0.0000 -12.1199 -11.4784 -34.0648 2.5518 9.9315 28.7552 -0.2198 -9.8491 9.3003 0.3617 3.8637 10.6935 0.0000 0.0000 0.0000 21.4218 -13.8713 -20.9203 -15.4784 -19.5026 76.6738 -0.0546 0.1810 -4.3523 -0.0686 1.6896 -4.6486 -1.0547 4.3022 14.1317 0.1036 5.5445 0.9102 -0.4063 2.7335 -7.0503 -18.1597 -14.4709 -4.5311 30.4571 -21.9176 6.0384 10.6031 -10.0945 8.4989 0.0000 -0.0000 0.0000 -85.3237 -9.1879 45.9078 51.5916 -53.6176 -27.4504 -0.0000 0.0000 -32.2400 19.7344 22.8730 7.9378 -7.1250 0.0000 -0.0000 -9.7836 53.8558 -2.1459 0.0000 -0.0000 0.0000 67.8916 27.0596 43.2639 -46.8070 51.6236 -23.6471 0.0000 -0.0000 -18.7587 -23.7379 10.1665 -4.4385 7.1250 -0.0000 -0.0000 2.3254 -18.9010 1.4479
0.00 0.00 0.00 -12.0418 3.5096 -0.7576 0.0000 0.0000 0.0000 -10.2239 -9.4922 -36.4275 2.9865 10.6732 31.1855 0.1016 -2.1037 7.1809 0.3018 3.5320 9.7636 0.0000 0.0000 0.0000 30.6880 -13.2596 -12.6781 -10.7314 -17.8011 61.9061 0.0739 8.8877 -4.7204 -0.9083 6.0732 -16.9969 -0.9988 5.7152 10.7646 -0.8667 7.4165 -0.1972 -1.5333 3.6519 -6.2252 -17.8232 -13.5056 -8.4556 27.3797 -20.8157 11.4649 9.5917 -9.1096 10.1972 -0.0000 0.0000 0.0000 -83.9714 -6.8507 42.3133 61.3834 -56.6675 -35.4946 -0.0000 0.0000 -33.9791 19.7520 24.2464 8.3883 -7.1250 0.0000 -0.0000 -10.3440 55.2542 -2.6247 -0.0000 0.0000 0.0000 77.4382 27.2741 71.1652 -56.6696 55.3551 -31.5852 0.0000 -0.0000 -16.5413 -20.1603 11.6067 -4.2245 7.1250 -0.0000 -0.0000 4.8928 -17.6653 3.1891
0.00 0.00 0.00 -11.3616 -3.0729 -0.3646 0.0000 0.0000 0.0000 -8.6956 -8.7930 -37.9634 3.0685 10.8051 31.6255 0.0840 2.3392 5.1646 0.1251 2.2803 6.2811 0.0000 0.0000 0.0000 33.1094 -11.0530 -7.7613 -8.5385 -16.5014 54.4799 -1.2591 5.1480 -20.1364 -1.5275 7.8036 -22.1190 -0.0153 6.4606 9.6096 -0.7339 8.5520 -0.3656 -1.9690 4.1979 -5.6215 -17.7635 -12.9161 -10.3512 25.5757 -19.6086 12.8567 9.1020 -8.4487 10.4438 0.0000 0.0000 0.0000 -83.9999 -6.2191 42.9527 64.1849 -57.3257 -37.8442 -0.0000 0.0000 -34.2007 20.0686 25.2415 8.8548 -7.1250 0.0000 -0.0000 -10.4685 56.3258 -2.9300 0.0000 0.0000 0.0000 80.7254 27.6269 83.4643 -56.5838 55.3287 -31.5146 0.0000 -0.0000 -11.5434 -17.5448 10.2021 -3.2051 7.1250 -0.0000 -0.0000 6.7213 -19.3300 4.1461
0.00 0.00 0.00 -11.9909 -13.3367 0.0474 0.0000 0.0000 0.0000 -4.3410 -7.6721 -38.3583 2.8702 10.4818 30.5516 -0.1370 8.3332 -8.5360 0.0124 0.7198 1.9780 0.0000 0.0000 0.0000 36.6710 -3.1747 -2.2943 -6.1371 -14.5599 45.5295 -3.0141 -4.5113 -34.6135 -0.6743 5.2510 -14.6259 3.1173 6.9650 10.2030 0.7689 9.6671 0.2354 -2.2738 4.7008 -5.0415 -16.9037 -11.7178 -14.2986 21.7103 -16.9134 14.7378 7.9266 -7.0920 10.5955 -0.0000 0.0000 0.0000 -85.3492 -5.9894 46.9326 65.7212 -57.6511 -39.1398 -0.0000 0.0000 -33.0054 21.4684 28.6840 10.6895 -7.1250 0.0000 -0.0000 -10.7700 60.1090 -3.9977 -0.0000 0.0000 0.0000 85.3810 24.6040 93.7600 -52.1401 53.8230 -27.8926 0.0000 -0.0000 -8.8528 -25.6305 8.6354 -4.1203 7.1250 -0.0000 -0.0000 0.9078 -20.4190 0.5341
0.00 0.00 0.00 -10.6807 -14.3554 1.2337 0.0000 0.0000 0.0000 -5.2312 -5.3366 -38.7446 6.0074 14.4355 45.0115 0.2642 0.1512 -9.7648 0.1778 -2.7163 -7.4899 0.0000 0.0000 0.0000 35.8591 2.0101 -10.3211 -4.9521 -13.3296 40.6153 -2.1604 -6.4527 -30.6647 -0.0284 -1.0872 2.9889 1.7495 1.5804 13.5266 3.5791 2.6085 0.7596 2.3044 1.2702 -6.8843 -12.4714 -7.9652 -18.6077 17.4403 -11.1997 15.3796 6.5426 -4.3043 9.7285 -0.0000 -0.0000 0.0000 -88.2407 -3.7251 60.4854 56.4660 -55.2922 -31.4178 -0.0000 0.0000 -13.5754 10.5584 29.2477 5.2035 -7.1250 0.0000 -0.0000 -22.7347 58.1679 -7.5785 -0.0000 -0.0000 0.0000 80.6656 7.0592 72.1669 -49.1377 52.6418 -25.4871 0.0000 -0.0000 -15.0432 -26.5124 11.9835 -5.9134 7.1250 -0.0000 -0.0000 0.4803 -16.6362 0.3227
0.00 0.00 0.00 -8.2683 -20.5252 4.1937 0.0000 0.0000 0.0000 -6.7325 -2.1278 -28.4431 10.7088 17.7896 61.8323 0.6434 -5.2130 -14.2844 0.9494 -6.2051 -17.3808 0.0000 0.0000 0.0000 30.1908 6.8318 -17.2900 -4.4283 -12.7096 38.2908 -1.5352 0.8395 -23.1838 -0.1437 -2.4429 6.7314 2.0713 0.6373 11.4742 3.5982 1.3484 -0.0282 2.3978 0.6474 -6.5216 -11.6787 -5.8699 -18.3714 15.0787 -8.1204 16.7095 6.0794 -3.0393 9.4415 0.0000 -0.0000 0.0000 -88.1158 -3.1557 63.4924 64.0036 -57.2857 -37.6916 -0.0000 0.0000 -8.5076 8.0509 17.6744 2.4590 -7.1250 0.0000 -0.0000 -18.8874 46.9009 -0.9178 0.0000 -0.0000 0.0000 77.0350 -0.8876 40.4936 -31.9372 42.4970 -12.6984 0.0000 -0.0000 -15.9178 -27.7682 12.5779 -6.5410 7.1250 -0.0000 -0.0000 -0.3418 -15.8272 -0.2357
0.00 0.00 0.00 -6.4756 -27.3117 5.6777 0.0000 0.0000 0.0000 -12.2765 3.0296 -10.9051 8.4213 16.4206 54.0665 -1.0422 -20.0960 -2.7111 0.6613 -5.2008 -14.4823 0.0000 0.0000 0.0000 25.9037 10.2165 -23.7346 -4.3186 -12.5727 37.7893 -0.8208 7.7347 -16.2481 -0.2528 -3.2349 8.9335 2.1058 0.3776 10.0136 3.8424 0.9567 -0.1798 2.7024 0.4578 -5.8502 -10.6367 -3.5525 -17.9516 12.2029 -4.6460 17.6343 5.3845 -1.6414 9.0318 -0.0000 -0.0000 0.0000 -89.4136 -1.1305 55.9601 69.1555 -58.2929 -42.0516 -0.0000 0.0000 -6.4058 13.9135 12.7138 3.1207 -7.1250 0.0000 -0.0000 -12.0738 42.7414 0.6837 -0.0000 -0.0000 0.0000 74.2622 -1.7115 9.0348 -27.2426 38.4096 -9.6495 0.0000 -0.0000 -10.1618 -30.3987 15.4919 -8.9058 7.1250 -0.0000 -0.0000 -1.8301 -12.1719 -1.4038
0.00 0.00 0.00 -4.5242 -29.4613 6.3081 0.0000 0.0000 0.0000 -17.8410 1.0104 -1.1077 4.4761 12.7684 38.5075 -1.3729 -22.3640 -1.9510 0.3589 -3.8489 -10.6518 0.0000 0.0000 0.0000 22.6702 13.1892 -29.1092 -4.6623 -12.9931 39.3427 -0.4664 8.5377 -12.7019 -0.4275 -4.1962 11.6292 0.4367 -0.2338 9.3190 3.8285 -0.0625 -0.4380 3.7789 0.0072 -5.6935 -9.2697 -2.1722 -18.5819 10.6546 -2.8012 18.8443 4.8822 -0.8250 9.2750 0.0000 0.0000 0.0000 -88.5849 0.8521 52.1344 71.5838 -58.6789 -44.1218 -0.0000 0.0000 -8.3422 16.6575 12.4701 3.6966 -7.1250 0.0000 -0.0000 -9.5870 42.7754 0.5315 0.0000 0.0000 0.0000 73.1353 -2.4568 1.0201 -29.8902 40.7991 -11.3378 0.0000 -0.0000 -17.6861 -33.5850 14.7931 -9.6226 7.1250 -0.0000 -0.0000 -4.0301 -12.4240 -3.0765
